<svg width="131" height="13" viewBox="0 0 131 13" fill="none" xmlns="http://www.w3.org/2000/svg">
<path d="M1.96094 5.50776H5.10156C5.59375 5.50776 5.84375 5.46876 6.07031 5.37496C6.60156 5.15616 7.0078 4.68746 7.0078 4.03116C7.0078 3.38276 6.61719 2.90616 6.07031 2.67966C5.84375 2.58586 5.60156 2.53906 5.09375 2.53906H1.96094V5.50776ZM1.96094 12H0.09375V0.796864H5.32812C6.19531 0.796864 6.76562 0.945262 7.25 1.22656C8.2188 1.74996 8.8516 2.75776 8.8516 4.02336C8.8516 5.25776 8.2188 6.28116 7.2422 6.81246C6.75781 7.08586 6.19531 7.24216 5.32812 7.24216H1.96094V12ZM15.8687 0.796864H17.9547L21.0016 6.53906L23.9547 0.796864H26.0406L21.7359 8.89836C21.2047 9.89836 20.8609 10.4922 20.3609 11.0156C19.7828 11.6094 19.0797 12.0234 18.1422 12.0234C17.4781 12.0234 16.8297 11.8125 16.2672 11.4219L17.2203 9.83586C17.5016 10.0391 17.8297 10.1484 18.1656 10.1484C18.8219 10.1484 19.2203 9.75776 19.7281 8.84377C19.7359 8.81247 19.9859 8.36716 19.9859 8.36716L15.8687 0.796864ZM33.6281 0.796864H34.6359L39.4875 6.63276L44.3312 0.796864H45.3469V12H43.4719V4.35156L39.4875 9.21877L35.4953 4.35156V12H33.6281V0.796864ZM53.325 0.789062H62.7938V2.53906H58.9891V12H57.1141V2.53906H53.325V0.789062ZM78.5609 12V4.17966L71.7797 12H70.7641V0.796864H72.6391V8.60936C74.8969 6.00776 77.1547 3.39836 79.4203 0.796864H80.4359V12H78.5609ZM97.773 8.67186C97.773 9.98436 97.117 11.0234 96.1172 11.5703C95.625 11.8438 95.0391 12 94.1641 12H89.0312V0.796864H96.7578V2.53906H90.8984V5.35156H94.1641C95.0391 5.35156 95.625 5.50776 96.1094 5.78906C97.117 6.32806 97.773 7.39836 97.773 8.67186ZM95.9219 8.67186C95.9219 7.96876 95.5 7.46086 94.9375 7.21876C94.7031 7.12496 94.4453 7.07806 93.9453 7.07806H90.8984V10.2656H93.9375C94.4531 10.2656 94.7109 10.2188 94.9375 10.1172C95.5078 9.88276 95.9219 9.36716 95.9219 8.67186ZM105.853 0.796864H113.502V2.53116H107.728V4.99216H112.205V6.71086H107.728V10.2656H113.502V12H105.853V0.796864ZM121.097 0.789062H130.566V2.53906H126.761V12H124.886V2.53906H121.097V0.789062Z" fill="white"/>
</svg>
